<svg xmlns="http://www.w3.org/2000/svg" xmlns:xlink="http://www.w3.org/1999/xlink" width="1134" zoomAndPan="magnify" viewBox="0 0 850.5 422.250001" height="563" preserveAspectRatio="xMidYMid meet" version="1.0"><defs><g/><clipPath id="a5fcc88b06"><path d="M 0.503906 0 L 849.496094 0 L 849.496094 421.5 L 0.503906 421.5 Z M 0.503906 0 " clip-rule="nonzero"/></clipPath><clipPath id="08fb786011"><rect x="0" width="399" y="0" height="145"/></clipPath><clipPath id="0c6dea5c28"><rect x="0" width="560" y="0" height="145"/></clipPath><clipPath id="ebdaaa90b5"><rect x="0" width="326" y="0" height="145"/></clipPath></defs><g clip-path="url(#a5fcc88b06)"><path fill="#ffffff" d="M 0.503906 0 L 849.496094 0 L 849.496094 421.5 L 0.503906 421.5 Z M 0.503906 0 " fill-opacity="1" fill-rule="nonzero"/></g><g transform="matrix(1, 0, 0, 1, 34, 30)"><g clip-path="url(#08fb786011)"><g fill="#000000" fill-opacity="1"><g transform="translate(0.422583, 111.331289)"><g><path d="M 36.671875 1.40625 C 30.191406 1.40625 23.921875 0.53125 17.859375 -1.21875 C 11.804688 -2.976562 6.945312 -5.265625 3.28125 -8.078125 L 9.71875 -22.375 C 13.238281 -19.800781 17.414062 -17.734375 22.25 -16.171875 C 27.09375 -14.609375 31.9375 -13.828125 36.78125 -13.828125 C 42.175781 -13.828125 46.160156 -14.625 48.734375 -16.21875 C 51.316406 -17.820312 52.609375 -19.953125 52.609375 -22.609375 C 52.609375 -24.566406 51.84375 -26.1875 50.3125 -27.46875 C 48.789062 -28.757812 46.835938 -29.796875 44.453125 -30.578125 C 42.078125 -31.359375 38.859375 -32.21875 34.796875 -33.15625 C 28.546875 -34.632812 23.425781 -36.113281 19.4375 -37.59375 C 15.457031 -39.082031 12.039062 -41.46875 9.1875 -44.75 C 6.34375 -48.03125 4.921875 -52.40625 4.921875 -57.875 C 4.921875 -62.632812 6.207031 -66.945312 8.78125 -70.8125 C 11.363281 -74.6875 15.25 -77.753906 20.4375 -80.015625 C 25.632812 -82.285156 31.984375 -83.421875 39.484375 -83.421875 C 44.710938 -83.421875 49.828125 -82.796875 54.828125 -81.546875 C 59.828125 -80.296875 64.203125 -78.5 67.953125 -76.15625 L 62.09375 -61.734375 C 54.519531 -66.035156 46.941406 -68.1875 39.359375 -68.1875 C 34.046875 -68.1875 30.117188 -67.328125 27.578125 -65.609375 C 25.046875 -63.890625 23.78125 -61.625 23.78125 -58.8125 C 23.78125 -56 25.242188 -53.910156 28.171875 -52.546875 C 31.097656 -51.179688 35.570312 -49.832031 41.59375 -48.5 C 47.84375 -47.019531 52.957031 -45.535156 56.9375 -44.046875 C 60.914062 -42.566406 64.332031 -40.222656 67.1875 -37.015625 C 70.039062 -33.816406 71.46875 -29.484375 71.46875 -24.015625 C 71.46875 -19.328125 70.15625 -15.050781 67.53125 -11.1875 C 64.914062 -7.320312 60.992188 -4.253906 55.765625 -1.984375 C 50.535156 0.273438 44.171875 1.40625 36.671875 1.40625 Z M 36.671875 1.40625 "/></g></g></g><g fill="#000000" fill-opacity="1"><g transform="translate(75.157418, 111.331289)"><g><path d="M 133.671875 -82.015625 L 106.84375 0 L 86.46875 0 L 68.421875 -55.53125 L 49.796875 0 L 29.515625 0 L 2.578125 -82.015625 L 22.265625 -82.015625 L 40.765625 -24.375 L 60.09375 -82.015625 L 77.671875 -82.015625 L 96.421875 -23.90625 L 115.515625 -82.015625 Z M 133.671875 -82.015625 "/></g></g></g><g fill="#000000" fill-opacity="1"><g transform="translate(209.633074, 111.331289)"><g><path d="M 9.71875 -82.015625 L 28.703125 -82.015625 L 28.703125 0 L 9.71875 0 Z M 9.71875 -82.015625 "/></g></g></g><g fill="#000000" fill-opacity="1"><g transform="translate(248.054734, 111.331289)"><g><path d="M 36.671875 1.40625 C 30.191406 1.40625 23.921875 0.53125 17.859375 -1.21875 C 11.804688 -2.976562 6.945312 -5.265625 3.28125 -8.078125 L 9.71875 -22.375 C 13.238281 -19.800781 17.414062 -17.734375 22.25 -16.171875 C 27.09375 -14.609375 31.9375 -13.828125 36.78125 -13.828125 C 42.175781 -13.828125 46.160156 -14.625 48.734375 -16.21875 C 51.316406 -17.820312 52.609375 -19.953125 52.609375 -22.609375 C 52.609375 -24.566406 51.84375 -26.1875 50.3125 -27.46875 C 48.789062 -28.757812 46.835938 -29.796875 44.453125 -30.578125 C 42.078125 -31.359375 38.859375 -32.21875 34.796875 -33.15625 C 28.546875 -34.632812 23.425781 -36.113281 19.4375 -37.59375 C 15.457031 -39.082031 12.039062 -41.46875 9.1875 -44.75 C 6.34375 -48.03125 4.921875 -52.40625 4.921875 -57.875 C 4.921875 -62.632812 6.207031 -66.945312 8.78125 -70.8125 C 11.363281 -74.6875 15.25 -77.753906 20.4375 -80.015625 C 25.632812 -82.285156 31.984375 -83.421875 39.484375 -83.421875 C 44.710938 -83.421875 49.828125 -82.796875 54.828125 -81.546875 C 59.828125 -80.296875 64.203125 -78.5 67.953125 -76.15625 L 62.09375 -61.734375 C 54.519531 -66.035156 46.941406 -68.1875 39.359375 -68.1875 C 34.046875 -68.1875 30.117188 -67.328125 27.578125 -65.609375 C 25.046875 -63.890625 23.78125 -61.625 23.78125 -58.8125 C 23.78125 -56 25.242188 -53.910156 28.171875 -52.546875 C 31.097656 -51.179688 35.570312 -49.832031 41.59375 -48.5 C 47.84375 -47.019531 52.957031 -45.535156 56.9375 -44.046875 C 60.914062 -42.566406 64.332031 -40.222656 67.1875 -37.015625 C 70.039062 -33.816406 71.46875 -29.484375 71.46875 -24.015625 C 71.46875 -19.328125 70.15625 -15.050781 67.53125 -11.1875 C 64.914062 -7.320312 60.992188 -4.253906 55.765625 -1.984375 C 50.535156 0.273438 44.171875 1.40625 36.671875 1.40625 Z M 36.671875 1.40625 "/></g></g></g><g fill="#000000" fill-opacity="1"><g transform="translate(322.789569, 111.331289)"><g><path d="M 36.671875 1.40625 C 30.191406 1.40625 23.921875 0.53125 17.859375 -1.21875 C 11.804688 -2.976562 6.945312 -5.265625 3.28125 -8.078125 L 9.71875 -22.375 C 13.238281 -19.800781 17.414062 -17.734375 22.25 -16.171875 C 27.09375 -14.609375 31.9375 -13.828125 36.78125 -13.828125 C 42.175781 -13.828125 46.160156 -14.625 48.734375 -16.21875 C 51.316406 -17.820312 52.609375 -19.953125 52.609375 -22.609375 C 52.609375 -24.566406 51.84375 -26.1875 50.3125 -27.46875 C 48.789062 -28.757812 46.835938 -29.796875 44.453125 -30.578125 C 42.078125 -31.359375 38.859375 -32.21875 34.796875 -33.15625 C 28.546875 -34.632812 23.425781 -36.113281 19.4375 -37.59375 C 15.457031 -39.082031 12.039062 -41.46875 9.1875 -44.75 C 6.34375 -48.03125 4.921875 -52.40625 4.921875 -57.875 C 4.921875 -62.632812 6.207031 -66.945312 8.78125 -70.8125 C 11.363281 -74.6875 15.25 -77.753906 20.4375 -80.015625 C 25.632812 -82.285156 31.984375 -83.421875 39.484375 -83.421875 C 44.710938 -83.421875 49.828125 -82.796875 54.828125 -81.546875 C 59.828125 -80.296875 64.203125 -78.5 67.953125 -76.15625 L 62.09375 -61.734375 C 54.519531 -66.035156 46.941406 -68.1875 39.359375 -68.1875 C 34.046875 -68.1875 30.117188 -67.328125 27.578125 -65.609375 C 25.046875 -63.890625 23.78125 -61.625 23.78125 -58.8125 C 23.78125 -56 25.242188 -53.910156 28.171875 -52.546875 C 31.097656 -51.179688 35.570312 -49.832031 41.59375 -48.5 C 47.84375 -47.019531 52.957031 -45.535156 56.9375 -44.046875 C 60.914062 -42.566406 64.332031 -40.222656 67.1875 -37.015625 C 70.039062 -33.816406 71.46875 -29.484375 71.46875 -24.015625 C 71.46875 -19.328125 70.15625 -15.050781 67.53125 -11.1875 C 64.914062 -7.320312 60.992188 -4.253906 55.765625 -1.984375 C 50.535156 0.273438 44.171875 1.40625 36.671875 1.40625 Z M 36.671875 1.40625 "/></g></g></g></g></g><g transform="matrix(1, 0, 0, 1, 34, 134)"><g clip-path="url(#0c6dea5c28)"><g fill="#000000" fill-opacity="1"><g transform="translate(0.422583, 111.842675)"><g><path d="M 28.703125 -66.78125 L 28.703125 -45.109375 L 66.65625 -45.109375 L 66.65625 -29.875 L 28.703125 -29.875 L 28.703125 0 L 9.71875 0 L 9.71875 -82.015625 L 71.703125 -82.015625 L 71.703125 -66.78125 Z M 28.703125 -66.78125 "/></g></g></g><g fill="#000000" fill-opacity="1"><g transform="translate(75.274571, 111.842675)"><g><path d="M 9.71875 -82.015625 L 28.703125 -82.015625 L 28.703125 0 L 9.71875 0 Z M 9.71875 -82.015625 "/></g></g></g><g fill="#000000" fill-opacity="1"><g transform="translate(113.696231, 111.842675)"><g><path d="M 84.9375 -82.015625 L 84.9375 0 L 69.359375 0 L 28.46875 -49.796875 L 28.46875 0 L 9.71875 0 L 9.71875 -82.015625 L 25.421875 -82.015625 L 66.1875 -32.21875 L 66.1875 -82.015625 Z M 84.9375 -82.015625 "/></g></g></g><g fill="#000000" fill-opacity="1"><g transform="translate(208.344776, 111.842675)"><g><path d="M 63.734375 -17.578125 L 25.65625 -17.578125 L 18.390625 0 L -1.046875 0 L 35.5 -82.015625 L 54.25 -82.015625 L 90.90625 0 L 71 0 Z M 57.765625 -31.984375 L 44.75 -63.375 L 31.75 -31.984375 Z M 57.765625 -31.984375 "/></g></g></g><g fill="#000000" fill-opacity="1"><g transform="translate(298.073439, 111.842675)"><g><path d="M 84.9375 -82.015625 L 84.9375 0 L 69.359375 0 L 28.46875 -49.796875 L 28.46875 0 L 9.71875 0 L 9.71875 -82.015625 L 25.421875 -82.015625 L 66.1875 -32.21875 L 66.1875 -82.015625 Z M 84.9375 -82.015625 "/></g></g></g><g fill="#000000" fill-opacity="1"><g transform="translate(392.721983, 111.842675)"><g><path d="M 48.96875 1.40625 C 40.613281 1.40625 33.054688 -0.40625 26.296875 -4.03125 C 19.546875 -7.664062 14.234375 -12.707031 10.359375 -19.15625 C 6.492188 -25.601562 4.5625 -32.882812 4.5625 -41 C 4.5625 -49.125 6.492188 -56.40625 10.359375 -62.84375 C 14.234375 -69.289062 19.546875 -74.332031 26.296875 -77.96875 C 33.054688 -81.601562 40.65625 -83.421875 49.09375 -83.421875 C 56.195312 -83.421875 62.617188 -82.171875 68.359375 -79.671875 C 74.097656 -77.171875 78.921875 -73.578125 82.828125 -68.890625 L 70.640625 -57.640625 C 65.097656 -64.046875 58.226562 -67.25 50.03125 -67.25 C 44.945312 -67.25 40.410156 -66.132812 36.421875 -63.90625 C 32.441406 -61.675781 29.335938 -58.570312 27.109375 -54.59375 C 24.890625 -50.613281 23.78125 -46.082031 23.78125 -41 C 23.78125 -35.925781 24.890625 -31.394531 27.109375 -27.40625 C 29.335938 -23.425781 32.441406 -20.320312 36.421875 -18.09375 C 40.410156 -15.875 44.945312 -14.765625 50.03125 -14.765625 C 58.226562 -14.765625 65.097656 -18.003906 70.640625 -24.484375 L 82.828125 -13.234375 C 78.921875 -8.472656 74.078125 -4.84375 68.296875 -2.34375 C 62.515625 0.15625 56.070312 1.40625 48.96875 1.40625 Z M 48.96875 1.40625 "/></g></g></g><g fill="#000000" fill-opacity="1"><g transform="translate(478.58507, 111.842675)"><g><path d="M 73.21875 -15.234375 L 73.21875 0 L 9.71875 0 L 9.71875 -82.015625 L 71.703125 -82.015625 L 71.703125 -66.78125 L 28.59375 -66.78125 L 28.59375 -48.96875 L 66.65625 -48.96875 L 66.65625 -34.203125 L 28.59375 -34.203125 L 28.59375 -15.234375 Z M 73.21875 -15.234375 "/></g></g></g></g></g><g transform="matrix(1, 0, 0, 1, 30, 246)"><g clip-path="url(#ebdaaa90b5)"><g fill="#000000" fill-opacity="1"><g transform="translate(4.422583, 111.49202)"><g><path d="M 22.140625 0.703125 C 17.453125 0.703125 13.113281 -0.3125 9.125 -2.34375 C 5.144531 -4.375 1.910156 -7.265625 -0.578125 -11.015625 L 4.5625 -16.875 C 9.09375 -10.15625 14.992188 -6.796875 22.265625 -6.796875 C 32.410156 -6.796875 37.484375 -12.8125 37.484375 -24.84375 L 37.484375 -74.515625 L 7.5 -74.515625 L 7.5 -82.015625 L 46.046875 -82.015625 L 46.046875 -25.1875 C 46.046875 -16.59375 44.03125 -10.128906 40 -5.796875 C 35.976562 -1.460938 30.023438 0.703125 22.140625 0.703125 Z M 22.140625 0.703125 "/></g></g></g><g fill="#000000" fill-opacity="1"><g transform="translate(63.109348, 111.49202)"><g><path d="M 49.203125 0.703125 C 41.078125 0.703125 33.710938 -1.109375 27.109375 -4.734375 C 20.515625 -8.367188 15.363281 -13.347656 11.65625 -19.671875 C 7.945312 -26.003906 6.09375 -33.113281 6.09375 -41 C 6.09375 -48.894531 7.945312 -56.003906 11.65625 -62.328125 C 15.363281 -68.648438 20.515625 -73.628906 27.109375 -77.265625 C 33.710938 -80.898438 41.078125 -82.71875 49.203125 -82.71875 C 57.328125 -82.71875 64.648438 -80.921875 71.171875 -77.328125 C 77.691406 -73.734375 82.828125 -68.753906 86.578125 -62.390625 C 90.328125 -56.023438 92.203125 -48.894531 92.203125 -41 C 92.203125 -33.113281 90.328125 -25.988281 86.578125 -19.625 C 82.828125 -13.257812 77.691406 -8.28125 71.171875 -4.6875 C 64.648438 -1.09375 57.328125 0.703125 49.203125 0.703125 Z M 49.203125 -7.03125 C 55.679688 -7.03125 61.535156 -8.492188 66.765625 -11.421875 C 72.003906 -14.347656 76.109375 -18.40625 79.078125 -23.59375 C 82.046875 -28.789062 83.53125 -34.59375 83.53125 -41 C 83.53125 -47.40625 82.046875 -53.203125 79.078125 -58.390625 C 76.109375 -63.585938 72.003906 -67.648438 66.765625 -70.578125 C 61.535156 -73.515625 55.679688 -74.984375 49.203125 -74.984375 C 42.722656 -74.984375 36.847656 -73.515625 31.578125 -70.578125 C 26.304688 -67.648438 22.164062 -63.585938 19.15625 -58.390625 C 16.144531 -53.203125 14.640625 -47.40625 14.640625 -41 C 14.640625 -34.59375 16.144531 -28.789062 19.15625 -23.59375 C 22.164062 -18.40625 26.304688 -14.347656 31.578125 -11.421875 C 36.847656 -8.492188 42.722656 -7.03125 49.203125 -7.03125 Z M 49.203125 -7.03125 "/></g></g></g><g fill="#000000" fill-opacity="1"><g transform="translate(161.389231, 111.49202)"><g><path d="M 65.015625 -42.296875 C 70.410156 -41.117188 74.570312 -38.789062 77.5 -35.3125 C 80.425781 -31.84375 81.890625 -27.375 81.890625 -21.90625 C 81.890625 -14.875 79.289062 -9.460938 74.09375 -5.671875 C 68.90625 -1.890625 61.234375 0 51.078125 0 L 13.359375 0 L 13.359375 -82.015625 L 48.734375 -82.015625 C 57.867188 -82.015625 64.957031 -80.175781 70 -76.5 C 75.039062 -72.832031 77.5625 -67.640625 77.5625 -60.921875 C 77.5625 -56.390625 76.445312 -52.539062 74.21875 -49.375 C 71.988281 -46.21875 68.921875 -43.859375 65.015625 -42.296875 Z M 22.03125 -74.859375 L 22.03125 -45.109375 L 48.15625 -45.109375 C 54.789062 -45.109375 59.90625 -46.375 63.5 -48.90625 C 67.09375 -51.445312 68.890625 -55.140625 68.890625 -59.984375 C 68.890625 -64.828125 67.09375 -68.515625 63.5 -71.046875 C 59.90625 -73.585938 54.789062 -74.859375 48.15625 -74.859375 Z M 50.96875 -7.140625 C 58.300781 -7.140625 63.84375 -8.390625 67.59375 -10.890625 C 71.34375 -13.390625 73.21875 -17.296875 73.21875 -22.609375 C 73.21875 -32.835938 65.800781 -37.953125 50.96875 -37.953125 L 22.03125 -37.953125 L 22.03125 -7.140625 Z M 50.96875 -7.140625 "/></g></g></g><g fill="#000000" fill-opacity="1"><g transform="translate(249.712259, 111.49202)"><g><path d="M 35.96875 0.703125 C 29.875 0.703125 24.035156 -0.269531 18.453125 -2.21875 C 12.867188 -4.175781 8.550781 -6.753906 5.5 -9.953125 L 8.90625 -16.640625 C 11.875 -13.671875 15.816406 -11.265625 20.734375 -9.421875 C 25.660156 -7.585938 30.738281 -6.671875 35.96875 -6.671875 C 43.3125 -6.671875 48.816406 -8.019531 52.484375 -10.71875 C 56.160156 -13.414062 58 -16.910156 58 -21.203125 C 58 -24.484375 57 -27.097656 55 -29.046875 C 53.007812 -31.003906 50.566406 -32.507812 47.671875 -33.5625 C 44.785156 -34.613281 40.765625 -35.765625 35.609375 -37.015625 C 29.441406 -38.578125 24.519531 -40.082031 20.84375 -41.53125 C 17.175781 -42.976562 14.035156 -45.1875 11.421875 -48.15625 C 8.804688 -51.125 7.5 -55.144531 7.5 -60.21875 C 7.5 -64.351562 8.59375 -68.117188 10.78125 -71.515625 C 12.96875 -74.921875 16.328125 -77.640625 20.859375 -79.671875 C 25.390625 -81.703125 31.007812 -82.71875 37.71875 -82.71875 C 42.40625 -82.71875 46.992188 -82.070312 51.484375 -80.78125 C 55.984375 -79.488281 59.867188 -77.710938 63.140625 -75.453125 L 60.21875 -68.53125 C 56.78125 -70.800781 53.109375 -72.5 49.203125 -73.625 C 45.296875 -74.757812 41.46875 -75.328125 37.71875 -75.328125 C 30.539062 -75.328125 25.132812 -73.941406 21.5 -71.171875 C 17.863281 -68.398438 16.046875 -64.828125 16.046875 -60.453125 C 16.046875 -57.171875 17.039062 -54.535156 19.03125 -52.546875 C 21.03125 -50.554688 23.53125 -49.03125 26.53125 -47.96875 C 29.539062 -46.914062 33.582031 -45.765625 38.65625 -44.515625 C 44.675781 -43.035156 49.539062 -41.570312 53.25 -40.125 C 56.957031 -38.675781 60.097656 -36.488281 62.671875 -33.5625 C 65.253906 -30.632812 66.546875 -26.671875 66.546875 -21.671875 C 66.546875 -17.535156 65.429688 -13.765625 63.203125 -10.359375 C 60.972656 -6.960938 57.554688 -4.269531 52.953125 -2.28125 C 48.347656 -0.289062 42.6875 0.703125 35.96875 0.703125 Z M 35.96875 0.703125 "/></g></g></g></g></g></svg>